<svg width="51" height="52" viewBox="0 0 51 52" fill="none" xmlns="http://www.w3.org/2000/svg">
<g clip-path="url(#clip0_17_91)">
<path fill-rule="evenodd" clip-rule="evenodd" d="M49.8341 11.5639C49.8525 11.632 49.8619 11.7023 49.8621 11.7729V22.7449C49.8621 22.8857 49.8249 23.024 49.7542 23.1459C49.6836 23.2677 49.582 23.3688 49.4597 23.4389L40.2411 28.7409V39.2499C40.2411 39.5359 40.0889 39.7999 39.8406 39.9439L20.5976 51.0099C20.5535 51.0349 20.5055 51.0509 20.4574 51.0679C20.4394 51.0739 20.4224 51.0849 20.4034 51.0899C20.2689 51.1253 20.1275 51.1253 19.9929 51.0899C19.9709 51.0839 19.9509 51.0719 19.9299 51.0639C19.8858 51.0479 19.8398 51.0339 19.7977 51.0099L0.55867 39.9439C0.43645 39.8737 0.334897 39.7726 0.264247 39.6508C0.193597 39.529 0.156347 39.3907 0.15625 39.2499L0.15625 6.33387C0.15625 6.26187 0.16626 6.19187 0.184279 6.12387C0.190286 6.10087 0.2043 6.07987 0.212308 6.05687C0.227324 6.01487 0.241339 5.97187 0.263362 5.93287C0.278377 5.90687 0.3004 5.88587 0.318419 5.86187C0.341443 5.82987 0.362465 5.79687 0.389493 5.76887C0.412517 5.74587 0.442549 5.72887 0.468576 5.70887C0.497606 5.68487 0.523633 5.65887 0.556668 5.63987H0.557669L10.1777 0.106871C10.2995 0.0368518 10.4376 0 10.5781 0C10.7187 0 10.8567 0.0368518 10.9785 0.106871L20.5986 5.63987H20.6006C20.6326 5.65987 20.6596 5.68487 20.6887 5.70787C20.7147 5.72787 20.7437 5.74587 20.7667 5.76787C20.7948 5.79687 20.8148 5.82987 20.8388 5.86187C20.8558 5.88587 20.8789 5.90687 20.8929 5.93287C20.9159 5.97287 20.9289 6.01487 20.9449 6.05687C20.9529 6.07987 20.967 6.10087 20.973 6.12487C20.9914 6.19302 21.0008 6.26328 21.001 6.33387V26.8929L29.0174 22.2819V11.7719C29.0174 11.7019 29.0274 11.6309 29.0454 11.5639C29.0524 11.5399 29.0654 11.5189 29.0734 11.4959C29.0894 11.4539 29.1034 11.4109 29.1255 11.3719C29.1405 11.3459 29.1625 11.3249 29.1795 11.3009C29.2035 11.2689 29.2236 11.2359 29.2516 11.2079C29.2746 11.1849 29.3037 11.1679 29.3297 11.1479C29.3597 11.1239 29.3857 11.0979 29.4178 11.0789H29.4188L39.0398 5.54587C39.1616 5.47575 39.2997 5.43885 39.4402 5.43885C39.5808 5.43885 39.7189 5.47575 39.8406 5.54587L49.4607 11.0789C49.4947 11.0989 49.5207 11.1239 49.5508 11.1469C49.5758 11.1669 49.6048 11.1849 49.6278 11.2069C49.6559 11.2359 49.6759 11.2689 49.6999 11.3009C49.7179 11.3249 49.74 11.3459 49.754 11.3719C49.777 11.4109 49.79 11.4539 49.806 11.4959C49.815 11.5189 49.8281 11.5399 49.8341 11.5639ZM48.2584 22.2819V13.1579L44.8919 15.0939L40.2411 17.7689V26.8929L48.2594 22.2819H48.2584ZM38.6384 38.7869V29.6569L34.0636 32.2669L21 39.7149V48.9309L38.6384 38.7869ZM1.75992 7.71887V38.7869L19.3963 48.9299V39.7159L10.1827 34.5069L10.1797 34.5049L10.1757 34.5029C10.1447 34.4849 10.1186 34.4589 10.0896 34.4369C10.0646 34.4169 10.0356 34.4009 10.0135 34.3789L10.0115 34.3759C9.9855 34.3509 9.96748 34.3199 9.94546 34.2919C9.92544 34.2649 9.90141 34.2419 9.8854 34.2139L9.8844 34.2109C9.86638 34.1809 9.85537 34.1449 9.84235 34.1109C9.82934 34.0809 9.81232 34.0529 9.80431 34.0209V34.0199C9.7943 33.9819 9.7923 33.9419 9.7883 33.9029C9.78429 33.8729 9.77628 33.8429 9.77628 33.8129V33.8109V12.3299L5.12643 9.65387L1.75992 7.71987V7.71887ZM10.5791 1.72487L2.56376 6.33387L10.5771 10.9429L18.5915 6.33287L10.5771 1.72487H10.5791ZM14.7475 30.4889L19.3973 27.8149V7.71887L16.0308 9.65487L11.38 12.3299V32.4259L14.7475 30.4889ZM39.4402 7.16387L31.4259 11.7729L39.4402 16.3819L47.4536 11.7719L39.4402 7.16387ZM38.6384 17.7689L33.9875 15.0939L30.621 13.1579V22.2819L35.2709 24.9559L38.6384 26.8929V17.7689ZM20.1972 38.3299L31.9524 31.6259L37.8285 28.2759L29.8202 23.6699L20.5996 28.9729L12.1958 33.8059L20.1972 38.3299Z" fill="#FF2D20"/>
</g>
<defs>
<clipPath id="clip0_17_91">
<rect width="50.0522" height="52" fill="white" transform="translate(0.15625)"/>
</clipPath>
</defs>
</svg>
