<svg width="22" height="20" viewBox="0 0 22 20" fill="none" xmlns="http://www.w3.org/2000/svg">
<path d="M4.92446 20H0.363393V6.64702H4.92446V20ZM2.64147 4.82555C1.18299 4.82555 0 3.72732 0 2.40139C1.04392e-08 1.7645 0.278297 1.1537 0.77367 0.703352C1.26904 0.253003 1.94091 0 2.64147 0C3.34204 0 4.0139 0.253003 4.50928 0.703352C5.00465 1.1537 5.28295 1.7645 5.28295 2.40139C5.28295 3.72732 4.09946 4.82555 2.64147 4.82555ZM21.9951 20H17.4438V13.4999C17.4438 11.9507 17.4095 9.96406 15.0725 9.96406C12.7011 9.96406 12.3377 11.6471 12.3377 13.3882V20H7.78152V6.64702H12.156V8.46849H12.2198C12.8287 7.41936 14.3162 6.31219 16.5354 6.31219C21.1514 6.31219 22 9.07565 22 12.665V20H21.9951Z" fill="white"/>
</svg>
