<svg width="26" height="24" viewBox="0 0 26 24" fill="none" xmlns="http://www.w3.org/2000/svg">
<path d="M8.69637 19.3248C8.69637 19.424 8.57581 19.5034 8.42379 19.5034C8.25081 19.5183 8.13024 19.4389 8.13024 19.3248C8.13024 19.2255 8.25081 19.1461 8.40282 19.1461C8.56008 19.1312 8.69637 19.2106 8.69637 19.3248ZM7.06613 19.1014C7.02944 19.2007 7.13427 19.3148 7.29153 19.3446C7.42782 19.3942 7.58508 19.3446 7.61653 19.2454C7.64798 19.1461 7.54839 19.032 7.39113 18.9873C7.25484 18.9526 7.10282 19.0022 7.06613 19.1014ZM9.38306 19.0171C9.23105 19.0518 9.12621 19.1461 9.14194 19.2603C9.15766 19.3595 9.29395 19.424 9.45121 19.3893C9.60323 19.3545 9.70806 19.2603 9.69234 19.161C9.67661 19.0667 9.53508 19.0022 9.38306 19.0171ZM12.8323 0C5.56169 0 0 5.22573 0 12.109C0 17.6126 3.65887 22.3222 8.88508 23.9798C9.55605 24.0939 9.79193 23.7019 9.79193 23.3793C9.79193 23.0716 9.77621 21.3744 9.77621 20.3322C9.77621 20.3322 6.10685 21.0766 5.33629 18.8533C5.33629 18.8533 4.73871 17.4092 3.87903 17.037C3.87903 17.037 2.67863 16.2578 3.9629 16.2727C3.9629 16.2727 5.26815 16.372 5.98629 17.5531C7.13427 19.4687 9.05806 18.9178 9.80766 18.5903C9.92823 17.7963 10.269 17.2454 10.6464 16.9179C7.71613 16.6102 4.75968 16.2082 4.75968 11.4341C4.75968 10.0693 5.15806 9.38447 5.99677 8.51103C5.86048 8.18846 5.41492 6.85846 6.13306 5.14136C7.22863 4.81878 9.75 6.48129 9.75 6.48129C10.7984 6.20338 11.9254 6.05946 13.0419 6.05946C14.1585 6.05946 15.2855 6.20338 16.3339 6.48129C16.3339 6.48129 18.8552 4.81382 19.9508 5.14136C20.669 6.86342 20.2234 8.18846 20.0871 8.51103C20.9258 9.38943 21.4395 10.0743 21.4395 11.4341C21.4395 16.2231 18.352 16.6052 15.4218 16.9179C15.904 17.3099 16.3129 18.0543 16.3129 19.2205C16.3129 20.893 16.2972 22.9624 16.2972 23.3694C16.2972 23.6919 16.5383 24.084 17.204 23.9699C22.446 22.3222 26 17.6126 26 12.109C26 5.22573 20.1028 0 12.8323 0ZM5.09516 17.1164C5.02702 17.166 5.04274 17.2801 5.13185 17.3744C5.21573 17.4538 5.33629 17.4886 5.40444 17.424C5.47258 17.3744 5.45685 17.2603 5.36774 17.166C5.28387 17.0866 5.16331 17.0518 5.09516 17.1164ZM4.52903 16.7144C4.49234 16.7789 4.54476 16.8583 4.6496 16.9079C4.73347 16.9576 4.83831 16.9427 4.875 16.8732C4.91169 16.8087 4.85927 16.7293 4.75444 16.6796C4.6496 16.6499 4.56573 16.6648 4.52903 16.7144ZM6.22742 18.4811C6.14355 18.5456 6.175 18.6945 6.29556 18.7888C6.41613 18.9029 6.56814 18.9178 6.63629 18.8384C6.70444 18.7739 6.67298 18.625 6.56815 18.5307C6.45282 18.4166 6.29556 18.4017 6.22742 18.4811ZM5.62984 17.7516C5.54597 17.8012 5.54597 17.9302 5.62984 18.0444C5.71371 18.1585 5.85524 18.2082 5.92339 18.1585C6.00726 18.094 6.00726 17.965 5.92339 17.8508C5.85 17.7367 5.71371 17.6871 5.62984 17.7516Z" fill="white"/>
</svg>
