<svg width="24" height="19" viewBox="0 0 24 19" fill="none" xmlns="http://www.w3.org/2000/svg">
<path d="M21.5331 4.73514C21.5483 4.94294 21.5483 5.15079 21.5483 5.35859C21.5483 11.6968 16.5991 19 7.55333 19C4.7665 19 2.17768 18.2132 0 16.8477C0.395955 16.8922 0.776628 16.907 1.18782 16.907C3.48728 16.907 5.60407 16.15 7.29444 14.8586C5.13199 14.8141 3.31979 13.4336 2.69542 11.5336C3.00001 11.5781 3.30456 11.6078 3.62439 11.6078C4.066 11.6078 4.50766 11.5484 4.9188 11.4445C2.66499 10.9992 0.974582 9.06952 0.974582 6.73905V6.6797C1.62938 7.03595 2.39087 7.25861 3.19792 7.28826C1.87304 6.4273 1.00505 4.95779 1.00505 3.29528C1.00505 2.40467 1.24866 1.58826 1.67508 0.875759C4.09642 3.78513 7.73605 5.6851 11.8172 5.89295C11.7411 5.5367 11.6954 5.16564 11.6954 4.79454C11.6954 2.15232 13.8883 0 16.6142 0C18.0304 0 19.3096 0.578905 20.2081 1.51406C21.3198 1.30626 22.3858 0.905458 23.33 0.356253C22.9644 1.46956 22.1878 2.40472 21.1675 2.99842C22.1574 2.89457 23.1168 2.62732 24 2.25627C23.3301 3.20623 22.4924 4.05229 21.5331 4.73514Z" fill="white"/>
</svg>
